
        <svg xmlns="http://www.w3.org/2000/svg" xmlns:xlink="http://www.w3.org/1999/xlink" version="1.1" width="3192" 
        height="3192" viewBox="0 0 3192 3192">
			
			<g transform="scale(9.6) translate(10, 10)">
				<defs id="SvgjsDefs19152"></defs><g id="SvgjsG19153" featureKey="rootContainer" transform="matrix(2.9875715273930257,0,0,2.9875715273930257,0.00001862645013371933,0.00001862645013371933)" fill="#9533d6"><path xmlns="http://www.w3.org/2000/svg" d="M52.3 104.6a52.3 52.3 0 1 1 52.3-52.3 52.4 52.4 0 0 1-52.3 52.3zm0-102.3a50 50 0 1 0 50 50 50 50 0 0 0-50-50z"></path></g><g id="SvgjsG19154" featureKey="symbolFeature-0" transform="matrix(-1.2342280320325432,0,0,1.2342280320325432,197.459257275225,92)" fill="#f5f1ed"><title xmlns="http://www.w3.org/2000/svg">zone, vible, couple, connection, personal, human</title><desc xmlns="http://www.w3.org/2000/svg">Created with Sketch.</desc><g xmlns="http://www.w3.org/2000/svg" stroke="none" stroke-width="1" fill="none" fill-rule="evenodd"><g transform="translate(-177.000000, -303.000000)" fill="#f5f1ed" fill-rule="nonzero"><path d="M221,321 C217.134007,321 214,317.865993 214,314 C214,310.134007 217.134007,307 221,307 C224.865993,307 228,310.134007 228,314 C228,317.865993 224.865993,321 221,321 Z M221,319 C223.761424,319 226,316.761424 226,314 C226,311.238576 223.761424,309 221,309 C218.238576,309 216,311.238576 216,314 C216,316.761424 218.238576,319 221,319 Z M199,317 C195.134007,317 192,313.865993 192,310 C192,306.134007 195.134007,303 199,303 C202.865993,303 206,306.134007 206,310 C206,313.865993 202.865993,317 199,317 Z M199,315 C201.761424,315 204,312.761424 204,310 C204,307.238576 201.761424,305 199,305 C196.238576,305 194,307.238576 194,310 C194,312.761424 196.238576,315 199,315 Z M189,337 C189,337.552285 188.552285,338 188,338 C187.447715,338 187,337.552285 187,337 C187,327.673567 192.275577,320 199,320 C201.908466,320 204.632654,321.451659 206.768549,324.017408 C207.121896,324.441867 207.064249,325.072402 206.63979,325.425748 C206.215332,325.779095 205.584797,325.721447 205.231451,325.296989 C203.454445,323.162358 201.273161,322 199,322 C193.574158,322 189,328.653321 189,337 Z M233,341 C233,341.552285 232.552285,342 232,342 C231.447715,342 231,341.552285 231,341 C231,332.653321 226.425842,326 221,326 C215.574158,326 211,332.653321 211,341 C211,341.552285 210.552285,342 210,342 C209.447715,342 209,341.552285 209,341 C209,331.673567 214.275577,324 221,324 C227.724423,324 233,331.673567 233,341 Z M237.381814,335.561407 C236.947701,335.219993 236.872553,334.591303 237.213968,334.157189 C237.555383,333.723076 238.184072,333.647929 238.618186,333.989343 C241.576939,336.316296 243.090495,338.868457 242.819223,341.449439 C242.040773,348.855893 226.734138,352.830436 208.64113,350.928785 C190.548122,349.027133 176.402328,341.957015 177.180777,334.550561 C177.412971,332.34139 178.925934,330.417454 181.481609,328.868196 C181.953892,328.581897 182.568844,328.732666 182.855144,329.204949 C183.141443,329.677232 182.990674,330.292184 182.518391,330.578484 C180.449728,331.832513 179.327479,333.259604 179.169821,334.759618 C178.562764,340.535386 191.790601,347.146706 208.850187,348.939741 C225.909773,350.732776 240.223121,347.016151 240.830179,341.240382 C241.016695,339.465801 239.854478,337.506069 237.381814,335.561407 Z M241.503861,353.131757 C241.983379,352.857747 242.594233,353.024344 242.868243,353.503861 C243.142253,353.983379 242.975656,354.594233 242.496139,354.868243 C233.638817,359.92957 222.289774,362.363315 208.64113,360.928785 C195.227888,359.518996 185.546688,356.076432 177.3897,349.792171 C176.952197,349.455111 176.87077,348.827204 177.207829,348.3897 C177.544889,347.952197 178.172796,347.87077 178.6103,348.207829 C186.450106,354.247729 195.782543,357.566276 208.850187,358.939741 C222.078972,360.330142 233.008189,357.986426 241.503861,353.131757 Z"></path></g></g></g><g id="SvgjsG19155" featureKey="nameFeature-0" transform="matrix(0.7382834841401869,0,0,0.7382834841401869,53.30334482883316,175.5934404961153)" fill="#f5f1ed"><path d="M18.555 40 l-7.3438 -12.422 l-1.6992 0 l0 12.422 l-5.8594 0 l0 -28.223 l10.234 0 c6.3867 0 9.082 3.7695 9.082 8.4375 c0 3.7891 -2.1484 6.25 -5.9766 7.0703 l8.4961 12.715 l-6.9336 0 z M9.5117 16.641 l0 6.7383 l3.457 0 c3.125 0 4.3945 -1.3281 4.3945 -3.3594 c0 -2.0117 -1.2695 -3.3789 -4.3945 -3.3789 l-3.457 0 z M49.785624999999996 16.934 l-10.469 0 l0 6.4063 l9.2773 0 l0 5.0977 l-9.2773 0 l0 6.3867 l10.469 0 l0 5.1758 l-16.367 0 l0 -28.223 l16.367 0 l0 5.1563 z M68.82778125 40.39063 c-6.0547 0 -10.781 -2.9102 -11.641 -8.2031 l6.0547 -1.3867 c0.39063 3.1641 2.7148 4.8047 5.8203 4.8047 c2.3828 0 4.2773 -1.0547 4.2578 -3.4375 c-0.019531 -2.6563 -3.1445 -3.4961 -6.582 -4.5508 c-4.1406 -1.2891 -8.5742 -2.8125 -8.5742 -8.0078 c0 -5.2539 4.2969 -8.2227 9.9609 -8.2227 c4.9609 0 9.9609 2.0117 11.094 7.4219 l-5.6641 1.4063 c-0.52734 -2.8125 -2.4219 -4.043 -5.0781 -4.043 c-2.3633 0 -4.375 0.97656 -4.375 3.3008 c0 2.168 2.7734 2.8906 5.9766 3.8477 c4.2578 1.2891 9.2969 2.9297 9.2969 8.5547 c0 5.9961 -5.0195 8.5156 -10.547 8.5156 z M100.917625 40.39063 c-8.3008 0 -14.434 -5.6641 -14.434 -14.512 c0 -8.8672 6.1328 -14.492 14.434 -14.492 c8.2813 0 14.414 5.625 14.414 14.492 c0 8.8477 -6.1328 14.512 -14.414 14.512 z M100.917625 35.0195 c4.8633 0 8.5938 -3.418 8.5938 -9.1406 c0 -5.7031 -3.7305 -9.1016 -8.5938 -9.1016 s-8.5938 3.3984 -8.5938 9.1016 c0 5.7227 3.7305 9.1406 8.5938 9.1406 z M143.633125 11.777000000000001 l5.8398 0 l0 28.223 l-6.7773 0 l-12.5 -20.176 l0 20.176 l-5.8398 0 l0 -28.223 l6.6992 0 l12.578 20.059 l0 -20.059 z M179.2968125 40 l-2.0508 -5.8203 l-11.855 0 l-2.0508 5.8203 l-5.9961 0 l10.391 -28.223 l7.168 0 l10.391 28.223 l-5.9961 0 z M167.1098125 29.277 l8.418 0 l-4.1992 -11.973 z M212.44171875 11.777000000000001 l5.8398 0 l0 28.223 l-6.7773 0 l-12.5 -20.176 l0 20.176 l-5.8398 0 l0 -28.223 l6.6992 0 l12.578 20.059 l0 -20.059 z M238.59340625 40.39063 c-6.0547 0 -10.781 -2.9102 -11.641 -8.2031 l6.0547 -1.3867 c0.39063 3.1641 2.7148 4.8047 5.8203 4.8047 c2.3828 0 4.2773 -1.0547 4.2578 -3.4375 c-0.019531 -2.6563 -3.1445 -3.4961 -6.582 -4.5508 c-4.1406 -1.2891 -8.5742 -2.8125 -8.5742 -8.0078 c0 -5.2539 4.2969 -8.2227 9.9609 -8.2227 c4.9609 0 9.9609 2.0117 11.094 7.4219 l-5.6641 1.4063 c-0.52734 -2.8125 -2.4219 -4.043 -5.0781 -4.043 c-2.3633 0 -4.375 0.97656 -4.375 3.3008 c0 2.168 2.7734 2.8906 5.9766 3.8477 c4.2578 1.2891 9.2969 2.9297 9.2969 8.5547 c0 5.9961 -5.0195 8.5156 -10.547 8.5156 z M274.55125 16.934 l-10.469 0 l0 6.4063 l9.2773 0 l0 5.0977 l-9.2773 0 l0 6.3867 l10.469 0 l0 5.1758 l-16.367 0 l0 -28.223 l16.367 0 l0 5.1563 z"></path></g><g id="SvgjsG19156" featureKey="sloganFeature-0" transform="matrix(0.398336929945571,0,0,0.398336929945571,75.68133057000865,213.36682071457187)" fill="#9533d6"><path d="M9.08 20.3 c-2.26 0 -4.2 -0.8 -5.82 -2.38 c-1.64 -1.58 -2.46 -3.5 -2.46 -5.72 s0.82 -4.14 2.46 -5.72 c1.62 -1.58 3.56 -2.38 5.82 -2.38 c2.28 0 4.24 0.8 5.86 2.38 c1.22 1.18 1.98 2.56 2.26 4.1 l-4.18 0 c-0.2 -0.52 -0.52 -1 -0.92 -1.4 c-0.82 -0.82 -1.82 -1.22 -3.02 -1.22 c-1.18 0 -2.18 0.42 -3 1.24 s-1.24 1.82 -1.24 3 s0.42 2.18 1.24 3 s1.82 1.24 3 1.24 c1.2 0 2.2 -0.42 3.02 -1.24 l0.24 -0.26 l-3.8 0 l0.02 -3.02 l8.72 0 l0 1.36 c-0.22 1.78 -0.98 3.32 -2.34 4.64 c-1.62 1.58 -3.58 2.38 -5.86 2.38 z M23.945500000000003 20 l0 -15.6 l11.98 0 l0 3.88 l-7.98 0 l0 2.24 l5.62 0 l0 3.62 l-5.62 0 l0 2 l7.98 0 l0 3.86 l-11.98 0 z M42.591 20 l0 -15.6 l3.4 0 l6.96 8.72 l0 -8.72 l3.98 0 l0 15.6 l-3.38 0 l-6.96 -8.7 l0 8.7 l-4 0 z M63.596500000000006 20 l0 -15.6 l11.98 0 l0 3.88 l-7.98 0 l0 2.24 l5.62 0 l0 3.62 l-5.62 0 l0 2 l7.98 0 l0 3.86 l-11.98 0 z M82.242 20 l0 -15.6 l6.88 0 c1.96 0 3.48 0.5 4.54 1.5 c1.06 1.02 1.58 2.28 1.58 3.74 c0 1.54 -0.52 2.82 -1.58 3.82 c-0.34 0.32 -0.72 0.58 -1.14 0.8 l3.12 5.74 l-3.78 0 l-2.74 -5.02 l-2.88 0 l0 5.02 l-4 0 z M86.242 11.78 l2.66 0 c1.54 0 2.3 -0.7 2.3 -2.12 c0 -0.6 -0.18 -1.08 -0.56 -1.48 s-0.96 -0.58 -1.74 -0.58 l-2.66 0 l0 4.18 z M102.3075 20 l6.32 -15.6 l3.96 0 l6.3 15.6 l-4.36 0 l-1.26 -3.48 l-5.3 0 l-1.3 3.48 l-4.36 0 z M109.20750000000001 13.280000000000001 l2.78 -0.02 l-1.38 -3.74 z M130.413 20 l0 -11.72 l-4.86 0 l0 -3.88 l13.72 0 l0 3.88 l-4.86 0 l0 11.72 l-4 0 z M145.93850000000003 20 l0 -15.6 l11.98 0 l0 3.88 l-7.98 0 l0 2.24 l5.62 0 l0 3.62 l-5.62 0 l0 2 l7.98 0 l0 3.86 l-11.98 0 z M182.80950000000004 20 l0 -5.72 l-6.16 -9.88 l4.7 0 l3.44 5.66 l3.46 -5.66 l4.72 0 l-6.18 9.88 l0 5.72 l-3.98 0 z M207.91500000000005 20.3 c-2.26 0 -4.2 -0.8 -5.82 -2.38 c-1.64 -1.58 -2.46 -3.5 -2.46 -5.72 s0.82 -4.14 2.46 -5.72 c1.62 -1.58 3.56 -2.38 5.82 -2.38 c2.28 0 4.24 0.8 5.86 2.38 s2.42 3.5 2.42 5.72 s-0.8 4.14 -2.42 5.72 s-3.58 2.38 -5.86 2.38 z M207.91500000000005 16.44 c1.2 0 2.2 -0.42 3.02 -1.24 s1.22 -1.82 1.22 -3 s-0.4 -2.2 -1.22 -3.02 s-1.82 -1.22 -3.02 -1.22 c-1.18 0 -2.18 0.42 -3 1.24 s-1.24 1.82 -1.24 3 s0.42 2.18 1.24 3 s1.82 1.24 3 1.24 z M230.02050000000006 20 c-2.26 0 -4.02 -0.64 -5.28 -1.96 c-1.26 -1.3 -1.88 -2.96 -1.88 -5.02 l0 -8.62 l4 0 l0 8.38 c0 1.12 0.26 1.96 0.8 2.54 c0.54 0.6 1.32 0.9 2.36 0.9 s1.84 -0.3 2.38 -0.9 c0.54 -0.58 0.82 -1.42 0.82 -2.54 l0 -8.38 l3.98 0 l0 8.62 c0 2.04 -0.64 3.7 -1.9 5.02 s-3.02 1.96 -5.28 1.96 z M243.86600000000007 20 l0 -15.6 l6.88 0 c1.96 0 3.48 0.5 4.54 1.5 c1.06 1.02 1.58 2.28 1.58 3.74 c0 1.54 -0.52 2.82 -1.58 3.82 c-0.34 0.32 -0.72 0.58 -1.14 0.8 l3.12 5.74 l-3.78 0 l-2.74 -5.02 l-2.88 0 l0 5.02 l-4 0 z M247.86600000000007 11.78 l2.66 0 c1.54 0 2.3 -0.7 2.3 -2.12 c0 -0.6 -0.18 -1.08 -0.56 -1.48 s-0.96 -0.58 -1.74 -0.58 l-2.66 0 l0 4.18 z M275.99700000000007 20 l0 -15.6 l11.98 0 l0 3.88 l-7.98 0 l0 2.24 l5.62 0 l0 3.62 l-5.62 0 l0 2 l7.98 0 l0 3.86 l-11.98 0 z M300.9425000000001 20 l-6.3 -15.6 l4.36 0 l3.92 10.48 l3.94 -10.48 l4.36 0 l-6.32 15.6 l-3.96 0 z M317.8880000000001 20 l0 -15.6 l11.98 0 l0 3.88 l-7.98 0 l0 2.24 l5.62 0 l0 3.62 l-5.62 0 l0 2 l7.98 0 l0 3.86 l-11.98 0 z M336.5335000000001 20 l0 -15.6 l3.4 0 l6.96 8.72 l0 -8.72 l3.98 0 l0 15.6 l-3.38 0 l-6.96 -8.7 l0 8.7 l-4 0 z M362.3990000000001 20 l0 -11.72 l-4.86 0 l0 -3.88 l13.72 0 l0 3.88 l-4.86 0 l0 11.72 l-4 0 z M384.56450000000007 20.3 c-1.94 0 -3.52 -0.42 -4.76 -1.28 s-1.86 -2.02 -1.86 -3.52 l0 -0.18 l-0.02 -0.8 l3.92 0 l0 0.9 c0 0.34 0.24 0.66 0.7 0.96 s1.1 0.46 1.94 0.46 c0.7 0 1.2 -0.1 1.52 -0.28 c0.3 -0.18 0.46 -0.42 0.46 -0.68 c0 -0.32 -0.2 -0.6 -0.58 -0.84 c-0.4 -0.24 -1.1 -0.52 -2.08 -0.86 c-0.62 -0.22 -1.14 -0.4 -1.56 -0.56 s-0.92 -0.4 -1.5 -0.72 c-0.58 -0.3 -1.06 -0.64 -1.4 -0.98 s-0.64 -0.76 -0.9 -1.28 s-0.38 -1.08 -0.38 -1.7 c0 -1.46 0.56 -2.64 1.7 -3.52 s2.6 -1.32 4.4 -1.32 c1.86 0 3.38 0.46 4.58 1.38 s1.8 2.14 1.8 3.66 l0 0.98 l-3.9 0 l0 -0.9 c0 -0.42 -0.2 -0.82 -0.62 -1.16 s-1.02 -0.5 -1.78 -0.5 c-0.62 0 -1.1 0.1 -1.42 0.3 c-0.32 0.22 -0.48 0.46 -0.48 0.76 s0.18 0.54 0.54 0.74 c0.36 0.22 1.04 0.5 2.04 0.84 l1.02 0.36 l1.08 0.44 c0.46 0.22 0.84 0.4 1.12 0.58 s0.6 0.42 0.98 0.72 s0.66 0.62 0.88 0.92 c0.2 0.3 0.38 0.68 0.54 1.1 c0.14 0.42 0.22 0.88 0.22 1.34 c0 1.48 -0.58 2.62 -1.72 3.42 c-1.14 0.82 -2.64 1.22 -4.48 1.22 z M398.63000000000005 14.32 l-0.9 -9.92 l4.46 0 l-0.9 9.92 l-2.66 0 z M399.95000000000005 20.34 c-0.7 0 -1.28 -0.24 -1.78 -0.74 s-0.74 -1.08 -0.74 -1.78 s0.24 -1.28 0.74 -1.78 s1.08 -0.74 1.78 -0.74 s1.28 0.24 1.78 0.74 s0.74 1.08 0.74 1.78 s-0.24 1.28 -0.74 1.78 s-1.08 0.74 -1.78 0.74 z"></path></g>
			</g>
		</svg>
	